<svg width="108" height="133" viewBox="0 0 108 133" fill="none" xmlns="http://www.w3.org/2000/svg">
<g clip-path="url(#clip0_15_19)">
<ellipse cx="54" cy="79.8" rx="46.5231" ry="46.55" fill="#93CCFF"/>
<path d="M95.1663 43.9547L97.8223 41.2947L99.0653 42.5369C99.4718 42.9683 99.9606 43.3135 100.503 43.5523C101.045 43.791 101.629 43.9184 102.222 43.9269C102.814 43.9354 103.402 43.8248 103.95 43.6017C104.499 43.3786 104.998 43.0474 105.416 42.6279C105.835 42.2084 106.165 41.709 106.388 41.1593C106.611 40.6097 106.721 40.0208 106.712 39.4277C106.703 38.8346 106.576 38.2493 106.337 37.7064C106.099 37.1636 105.754 36.6741 105.323 36.2672L96.5872 27.5209C96.1813 27.0891 95.6929 26.7432 95.151 26.5037C94.6092 26.2643 94.0249 26.1362 93.4327 26.1269C92.8405 26.1177 92.2525 26.2276 91.7035 26.45C91.1545 26.6724 90.6556 27.0029 90.2364 27.4219C89.8172 27.8408 89.4861 28.3398 89.2629 28.8892C89.0396 29.4386 88.9287 30.0273 88.9367 30.6204C88.9446 31.2135 89.0713 31.7989 89.3092 32.3421C89.5472 32.8853 89.8915 33.3751 90.3218 33.7827L91.5515 35.0143L88.8955 37.6743C81.185 31.1321 71.8013 26.8799 61.8046 25.3982V21.2804H66.3941C67.566 21.2786 68.6896 20.813 69.5202 19.985C69.9334 19.5745 70.261 19.0859 70.484 18.5475C70.707 18.0091 70.8208 17.4317 70.819 16.8488V10.6402C70.8154 7.81933 69.695 5.115 67.7034 3.12033C65.7118 1.12567 63.0116 0.0035195 60.195 0H47.8076C44.9912 0.0042215 42.2915 1.1266 40.3 3.12111C38.3085 5.11562 37.1879 7.81955 37.1837 10.6402V16.8488C37.1851 18.0237 37.6517 19.1501 38.4812 19.9809C39.3107 20.8117 40.4354 21.279 41.6085 21.2804H46.1954V25.3982C36.1925 26.88 26.803 31.1351 19.0885 37.6823L16.4325 35.0223L17.6729 33.78C18.0978 33.3715 18.4371 32.8821 18.6709 32.3406C18.9046 31.7991 19.0281 31.2163 19.0342 30.6263C19.0402 30.0364 18.9286 29.4512 18.706 28.905C18.4834 28.3588 18.1541 27.8626 17.7376 27.4454C17.3211 27.0283 16.8256 26.6985 16.2803 26.4756C15.7349 26.2526 15.1506 26.1408 14.5616 26.1469C13.9725 26.1529 13.3906 26.2766 12.8499 26.5107C12.3093 26.7448 11.8206 27.0847 11.4127 27.5103L2.68519 36.2672C2.26022 36.6757 1.92093 37.1651 1.68718 37.7066C1.45343 38.2481 1.32992 38.8309 1.32389 39.4208C1.31786 40.0108 1.42943 40.596 1.65206 41.1422C1.8747 41.6884 2.20392 42.1846 2.62044 42.6018C3.03697 43.0189 3.53243 43.3487 4.07779 43.5716C4.62316 43.7946 5.20746 43.9063 5.79649 43.9003C6.38551 43.8943 6.96742 43.7706 7.50811 43.5365C8.0488 43.3023 8.53741 42.9625 8.94533 42.5369L10.1777 41.3027L12.8337 43.9627C4.55197 53.7201 0.00492527 66.1094 0.00531093 78.9158C-1.0212e-06 108.738 24.2225 133.003 53.9987 133.003C83.7748 133.003 108.005 108.74 108.005 78.9158C108.006 66.1051 103.455 53.7122 95.1663 43.9547ZM94.6776 78.9105C94.6776 89.4656 90.2235 100.233 82.7549 107.711C75.2863 115.188 64.5376 119.652 53.9987 119.652C43.4518 119.652 32.7004 115.186 25.2397 107.711C17.7791 100.236 13.3277 89.4709 13.333 78.9105C13.3383 68.3501 17.7897 57.5955 25.253 50.1207C32.7163 42.646 43.4597 38.1824 53.9987 38.1824C64.5402 38.1824 75.289 42.6407 82.747 50.1074C90.2049 57.5742 94.6723 68.3474 94.6723 78.9105H94.6776Z" fill="#D54319"/>
<path d="M58.4209 69.2676V51.0037C58.4365 50.4122 58.3339 49.8234 58.1189 49.2722C57.904 48.7209 57.5811 48.2183 57.1693 47.7939C56.7575 47.3696 56.2651 47.032 55.7211 46.801C55.1771 46.5701 54.5924 46.4505 54.0016 46.4492C53.4107 46.448 52.8255 46.5651 52.2805 46.7938C51.7356 47.0224 51.2417 47.358 50.8282 47.7806C50.4146 48.2033 50.0896 48.7045 49.8724 49.2549C49.6551 49.8052 49.55 50.3935 49.5632 50.9851V69.2676C47.36 70.2797 45.5685 72.0158 44.4861 74.1879C43.4038 76.3601 43.0956 78.8376 43.6127 81.2093C44.1299 83.581 45.4412 85.7043 47.3292 87.2268C49.2171 88.7493 51.5681 89.5794 53.992 89.5794C56.4159 89.5794 58.7669 88.7493 60.6549 87.2268C62.5428 85.7043 63.8542 83.581 64.3713 81.2093C64.8885 78.8376 64.5803 76.3601 63.4979 74.1879C62.4155 72.0158 60.6241 70.2797 58.4209 69.2676ZM55.7649 78.913C55.7659 79.265 55.6626 79.6094 55.4679 79.9025C55.2732 80.1956 54.996 80.4241 54.6715 80.5592C54.3469 80.6943 53.9896 80.7297 53.6449 80.6611C53.3002 80.5925 52.9836 80.4229 52.7352 80.1738C52.4869 79.9247 52.318 79.6074 52.25 79.262C52.182 78.9167 52.218 78.5589 52.3533 78.234C52.4887 77.9092 52.7173 77.6319 53.0103 77.4374C53.3032 77.2428 53.6472 77.1398 53.9987 77.1414C54.2321 77.1367 54.4641 77.1793 54.6807 77.2667C54.8973 77.3541 55.094 77.4845 55.259 77.65C55.424 77.8155 55.5539 78.0127 55.6408 78.2297C55.7277 78.4468 55.7699 78.6792 55.7649 78.913Z" fill="#D54319"/>
</g>
<defs>
<clipPath id="clip0_15_19">
<rect width="108" height="133" fill="white"/>
</clipPath>
</defs>
</svg>
